<?xml version="1.0" encoding="utf-8"?>
<!-- Generator: Adobe Illustrator 16.0.0, SVG Export Plug-In . SVG Version: 6.00 Build 0)  -->
<!DOCTYPE svg PUBLIC "-//W3C//DTD SVG 1.1//EN" "http://www.w3.org/Graphics/SVG/1.1/DTD/svg11.dtd">
<svg version="1.1" id="Layer_1" xmlns="http://www.w3.org/2000/svg" xmlns:xlink="http://www.w3.org/1999/xlink" x="0px" y="0px"
	 width="30px" height="30px" viewBox="0 0 30 30" enable-background="new 0 0 30 30" xml:space="preserve">
<g>
	<path fill="#660066" d="M0,4.629v11.523h17.839V0H4.629C2.077,0,0,2.078,0,4.629z"/>
	<g>
		<polygon fill="#FFFFFF" points="3.353,1.596 3.637,2.467 4.552,2.467 3.81,3.008 4.095,3.884 3.353,3.345 2.607,3.884 
			2.892,3.008 2.15,2.467 3.068,2.467 		"/>
		<polygon fill="#FFFFFF" points="9.252,1.596 9.536,2.467 10.455,2.467 9.713,3.008 9.996,3.884 9.252,3.345 8.51,3.884 
			8.793,3.008 8.051,2.467 8.969,2.467 		"/>
		<polygon fill="#FFFFFF" points="15.154,1.596 15.438,2.467 16.354,2.467 15.613,3.008 15.896,3.884 15.154,3.345 14.41,3.884 
			14.694,3.008 13.95,2.467 14.871,2.467 		"/>
		<polygon fill="#FFFFFF" points="2.892,7.07 3.175,7.947 4.095,7.947 3.353,8.485 3.637,9.358 2.892,8.818 2.15,9.358 2.431,8.485 
			1.688,7.947 2.607,7.947 		"/>
		<polygon fill="#FFFFFF" points="8.793,7.07 9.076,7.947 9.996,7.947 9.252,8.485 9.536,9.358 8.793,8.818 8.051,9.358 
			8.334,8.485 7.591,7.947 8.51,7.947 		"/>
		<polygon fill="#FFFFFF" points="14.694,7.07 14.978,7.947 15.896,7.947 15.154,8.485 15.438,9.358 14.694,8.818 13.95,9.358 
			14.234,8.485 13.492,7.947 14.41,7.947 		"/>
		<polygon fill="#FFFFFF" points="2.892,12.546 3.175,13.419 4.095,13.419 3.353,13.958 3.637,14.834 2.892,14.29 2.15,14.834 
			2.431,13.958 1.688,13.419 2.607,13.419 		"/>
		<polygon fill="#FFFFFF" points="8.793,12.546 9.076,13.419 9.996,13.419 9.252,13.958 9.536,14.834 8.793,14.29 8.051,14.834 
			8.334,13.958 7.591,13.419 8.51,13.419 		"/>
		<polygon fill="#FFFFFF" points="14.694,12.546 14.978,13.419 15.896,13.419 15.154,13.958 15.438,14.834 14.694,14.29 
			13.95,14.834 14.234,13.958 13.492,13.419 14.41,13.419 		"/>
		<polygon fill="#FFFFFF" points="5.906,9.807 6.188,10.681 7.106,10.681 6.362,11.221 6.646,12.097 5.906,11.553 5.162,12.097 
			5.446,11.221 4.702,10.681 5.619,10.681 		"/>
		<polygon fill="#FFFFFF" points="11.803,9.807 12.087,10.681 13.007,10.681 12.264,11.221 12.548,12.097 11.803,11.553 
			11.061,12.097 11.346,11.221 10.603,10.681 11.521,10.681 		"/>
		<polygon fill="#FFFFFF" points="5.906,4.334 6.188,5.208 7.106,5.208 6.362,5.748 6.646,6.62 5.906,6.081 5.162,6.62 5.446,5.748 
			4.702,5.208 5.619,5.208 		"/>
		<polygon fill="#FFFFFF" points="11.803,4.334 12.087,5.208 13.007,5.208 12.264,5.748 12.548,6.62 11.803,6.081 11.061,6.62 
			11.346,5.748 10.603,5.208 11.521,5.208 		"/>
	</g>
	<rect y="20.768" fill="#FFFFFF" width="30" height="2.307"/>
	<rect y="18.463" fill="#CC0000" width="30" height="2.305"/>
	<rect y="16.152" fill="#FFFFFF" width="30" height="2.311"/>
	<rect x="17.839" y="13.846" fill="#CC0000" width="12.161" height="2.306"/>
	<rect x="17.839" y="11.539" fill="#FFFFFF" width="12.161" height="2.308"/>
	<rect x="17.839" y="9.231" fill="#CC0000" width="12.161" height="2.308"/>
	<rect x="17.839" y="6.923" fill="#FFFFFF" width="12.161" height="2.308"/>
	<rect x="17.839" y="4.615" fill="#CC0000" width="12.161" height="2.309"/>
	<path fill="#CC0000" d="M29.492,2.306C28.773,0.942,27.359,0,25.715,0h-7.876v2.306H29.492z"/>
	<path fill="#FFFFFF" d="M30,4.287c0-0.717-0.194-1.385-0.508-1.98H17.839v2.309H30V4.287z"/>
	<rect y="23.074" fill="#CC0000" width="30" height="2.312"/>
	<path fill="#FFFFFF" d="M0,25.387v0.33c0,0.717,0.194,1.383,0.506,1.977h28.988C29.807,27.1,30,26.434,30,25.717v-0.33H0z"/>
	<path fill="#CC0000" d="M29.494,27.693H0.506C1.224,29.059,2.641,30,4.287,30h21.428C27.359,30,28.775,29.059,29.494,27.693z"/>
</g>
</svg>
