<?xml version="1.0" encoding="utf-8"?>
<!-- Generator: Adobe Illustrator 16.0.0, SVG Export Plug-In . SVG Version: 6.00 Build 0)  -->
<!DOCTYPE svg PUBLIC "-//W3C//DTD SVG 1.1//EN" "http://www.w3.org/Graphics/SVG/1.1/DTD/svg11.dtd">
<svg version="1.1" id="Layer_1" xmlns="http://www.w3.org/2000/svg" xmlns:xlink="http://www.w3.org/1999/xlink" x="0px" y="0px"
	 width="30px" height="30px" viewBox="0 0 30 30" enable-background="new 0 0 30 30" xml:space="preserve">
<g>
	<path fill="#0F004E" d="M30,25.717V4.287C30,1.923,28.077,0,25.715,0H4.287C1.923,0,0,1.923,0,4.287v21.43
		C0,28.078,1.923,30,4.287,30h21.428C28.077,30,30,28.078,30,25.717z"/>
	<path fill="#FFFFFF" d="M27.475,29.611C28.96,28.938,30,27.449,30,25.717v-1.082l-4.619-5.582H30v-8.105h-4.619L30,5.365V4.287
		c0-1.735-1.04-3.225-2.525-3.898l-8.432,9.771V0h-8.729v10.034l-8.165-9.44C0.871,1.336,0,2.705,0,4.287v1.586l4.143,5.074H0v8.105
		h4.143L0,24.127v1.59c0,1.579,0.871,2.948,2.149,3.691l8.165-9.442V30h8.729V19.84L27.475,29.611z"/>
	<path fill="#CC0000" d="M19.994,10.947l8.59-9.821c0.642,0.583,1.109,1.35,1.307,2.225l-6.319,7.597H19.994z M0.081,3.485
		l6.146,7.462h3.181l-8.29-9.522C0.602,1.996,0.23,2.698,0.081,3.485z M30,17.772v-5.098H17.342V0h-5.274v12.675H0v5.098h12.068V30
		h5.274V17.772H30z M23.571,19.053h-3.577l8.591,9.821c0.642-0.583,1.109-1.35,1.306-2.225L23.571,19.053z M6.228,19.053
		l-6.147,7.462c0.149,0.787,0.521,1.489,1.038,2.062l8.291-9.523H6.228z"/>
</g>
</svg>
