<?xml version="1.0" encoding="utf-8"?>
<!-- Generator: Adobe Illustrator 16.0.0, SVG Export Plug-In . SVG Version: 6.00 Build 0)  -->
<!DOCTYPE svg PUBLIC "-//W3C//DTD SVG 1.1//EN" "http://www.w3.org/Graphics/SVG/1.1/DTD/svg11.dtd">
<svg version="1.1" id="Layer_1" xmlns="http://www.w3.org/2000/svg" xmlns:xlink="http://www.w3.org/1999/xlink" x="0px" y="0px"
	 width="222px" height="17px" viewBox="0 0 222 17" enable-background="new 0 0 222 17" xml:space="preserve">
<g>
	<g>
		<defs>
			<path id="SVGID_1_" d="M0,0v3c0,3.033,2.967,6,6,6h210c3.033,0,5-2.967,5-6V0H0z"/>
		</defs>
		<clipPath id="SVGID_2_">
			<use xlink:href="#SVGID_1_"  overflow="visible"/>
		</clipPath>
		<path clip-path="url(#SVGID_2_)" fill="#F1F1F1" d="M221,0H0H221z"/>
		<rect clip-path="url(#SVGID_2_)" fill="#F1F1F1" width="221" height="0"/>
		<rect clip-path="url(#SVGID_2_)" fill="#F0F0F0" width="221" height="1"/>
		<rect y="1" clip-path="url(#SVGID_2_)" fill="#EFEFEF" width="221" height="0"/>
		<rect y="1" clip-path="url(#SVGID_2_)" fill="#EEEEEE" width="221" height="0"/>
		<rect y="1" clip-path="url(#SVGID_2_)" fill="#EDEDED" width="221" height="1"/>
		<rect y="2" clip-path="url(#SVGID_2_)" fill="#ECECEC" width="221" height="0"/>
		<rect y="2" clip-path="url(#SVGID_2_)" fill="#EBEBEB" width="221" height="0"/>
		<rect y="2" clip-path="url(#SVGID_2_)" fill="#EAEAEA" width="221" height="1"/>
		<rect y="3" clip-path="url(#SVGID_2_)" fill="#E9E9E9" width="221" height="0"/>
		<rect y="3" clip-path="url(#SVGID_2_)" fill="#E8E8E8" width="221" height="0"/>
		<rect y="3" clip-path="url(#SVGID_2_)" fill="#E7E7E7" width="221" height="1"/>
		<rect y="4" clip-path="url(#SVGID_2_)" fill="#E6E6E6" width="221" height="0"/>
		<rect y="4" clip-path="url(#SVGID_2_)" fill="#E5E5E5" width="221" height="1"/>
		<rect y="5" clip-path="url(#SVGID_2_)" fill="#E3E3E3" width="221" height="0"/>
		<rect y="5" clip-path="url(#SVGID_2_)" fill="#E2E2E2" width="221" height="0"/>
		<rect y="5" clip-path="url(#SVGID_2_)" fill="#E1E1E1" width="221" height="1"/>
		<rect y="6" clip-path="url(#SVGID_2_)" fill="#E0E0E0" width="221" height="0"/>
		<rect y="6" clip-path="url(#SVGID_2_)" fill="#DFDFDF" width="221" height="0"/>
		<rect y="6" clip-path="url(#SVGID_2_)" fill="#DEDEDE" width="221" height="1"/>
		<rect y="7" clip-path="url(#SVGID_2_)" fill="#DDDDDD" width="221" height="0"/>
		<rect y="7" clip-path="url(#SVGID_2_)" fill="#DCDCDC" width="221" height="0"/>
		<rect y="7" clip-path="url(#SVGID_2_)" fill="#DBDBDB" width="221" height="1"/>
		<rect y="8" clip-path="url(#SVGID_2_)" fill="#DADADA" width="221" height="0"/>
		<rect y="8" clip-path="url(#SVGID_2_)" fill="#D9D9D9" width="221" height="0"/>
		<rect y="8" clip-path="url(#SVGID_2_)" fill="#D8D8D8" width="221" height="1"/>
		<rect y="9" clip-path="url(#SVGID_2_)" fill="#D7D7D7" width="221" height="0"/>
		<path clip-path="url(#SVGID_2_)" fill="#D7D7D7" d="M0,9h221H0z"/>
	</g>
</g>
<g>
	<g>
		<defs>
			<path id="SVGID_3_" d="M85.924,16.5c-1.488-0.001-2.874-0.585-3.902-1.644L72.1,4.933H149.9l-9.928,9.929
				c-1.022,1.054-2.408,1.638-3.896,1.639H85.924z"/>
		</defs>
		<clipPath id="SVGID_4_">
			<use xlink:href="#SVGID_3_"  overflow="visible"/>
		</clipPath>
		<path clip-path="url(#SVGID_4_)" fill="#F1F1F1" d="M152.031-4H69.969H152.031z"/>
		<rect x="70" y="-4" clip-path="url(#SVGID_4_)" fill="#F1F1F1" width="82" height="0"/>
		<rect x="70" y="-4" clip-path="url(#SVGID_4_)" fill="#F0F0F0" width="82" height="1"/>
		<rect x="70" y="-3" clip-path="url(#SVGID_4_)" fill="#EFEFEF" width="82" height="1"/>
		<rect x="70" y="-2" clip-path="url(#SVGID_4_)" fill="#EEEEEE" width="82" height="1"/>
		<rect x="70" y="-1" clip-path="url(#SVGID_4_)" fill="#EDEDED" width="82" height="1"/>
		<rect x="70" clip-path="url(#SVGID_4_)" fill="#ECECEC" width="82" height="0"/>
		<rect x="70" clip-path="url(#SVGID_4_)" fill="#EBEBEB" width="82" height="1"/>
		<rect x="70" y="1" clip-path="url(#SVGID_4_)" fill="#EAEAEA" width="82" height="1"/>
		<rect x="70" y="2" clip-path="url(#SVGID_4_)" fill="#E9E9E9" width="82" height="1"/>
		<rect x="70" y="3" clip-path="url(#SVGID_4_)" fill="#E8E8E8" width="82" height="1"/>
		<rect x="70" y="4" clip-path="url(#SVGID_4_)" fill="#E7E7E7" width="82" height="0"/>
		<rect x="70" y="4" clip-path="url(#SVGID_4_)" fill="#E6E6E6" width="82" height="1"/>
		<rect x="70" y="5" clip-path="url(#SVGID_4_)" fill="#E5E5E5" width="82" height="1"/>
		<rect x="70" y="6" clip-path="url(#SVGID_4_)" fill="#E3E3E3" width="82" height="1"/>
		<rect x="70" y="7" clip-path="url(#SVGID_4_)" fill="#E2E2E2" width="82" height="1"/>
		<rect x="70" y="8" clip-path="url(#SVGID_4_)" fill="#E1E1E1" width="82" height="0"/>
		<rect x="70" y="8" clip-path="url(#SVGID_4_)" fill="#E0E0E0" width="82" height="1"/>
		<rect x="70" y="9" clip-path="url(#SVGID_4_)" fill="#DFDFDF" width="82" height="1"/>
		<rect x="70" y="10" clip-path="url(#SVGID_4_)" fill="#DEDEDE" width="82" height="1"/>
		<rect x="70" y="11" clip-path="url(#SVGID_4_)" fill="#DDDDDD" width="82" height="1"/>
		<rect x="70" y="12" clip-path="url(#SVGID_4_)" fill="#DCDCDC" width="82" height="0"/>
		<rect x="70" y="12" clip-path="url(#SVGID_4_)" fill="#DBDBDB" width="82" height="1"/>
		<rect x="70" y="13" clip-path="url(#SVGID_4_)" fill="#DADADA" width="82" height="1"/>
		<rect x="70" y="14" clip-path="url(#SVGID_4_)" fill="#D9D9D9" width="82" height="1"/>
		<rect x="70" y="15" clip-path="url(#SVGID_4_)" fill="#D8D8D8" width="82" height="1"/>
		<rect x="70" y="16" clip-path="url(#SVGID_4_)" fill="#D7D7D7" width="82" height="1"/>
		<path clip-path="url(#SVGID_4_)" fill="#D7D7D7" d="M69.969,17h82.062H69.969z"/>
	</g>
</g>
<rect x="86" y="11" fill="#999999" width="50" height="1"/>
<rect x="86" y="13" fill="#999999" width="50" height="1"/>
<path fill="#999999" d="M221,0c0,2.762-2.238,5-5,5H6C3.239,5,1,2.762,1,0H0v3c0,3.309,2.691,6,6,6h69.46l6.214,6.215
	c1.112,1.146,2.625,1.784,4.25,1.785h50.153c1.625-0.001,3.138-0.639,4.261-1.796L146.54,9H216c3.309,0,6-2.691,6-6V0H221z
	 M139.619,14.508c-0.898,0.926-2.157,1.491-3.543,1.492H85.924c-1.386-0.001-2.645-0.566-3.543-1.492L76.874,9h68.252
	L139.619,14.508z M216,8h-68.46h-1.414H75.874H74.46H6C3.364,8,1.228,5.954,1.037,3.367C2.118,4.955,3.938,6,6,6h210
	c2.062,0,3.883-1.045,4.963-2.633C220.771,5.954,218.636,8,216,8z"/>
</svg>
